<svg xmlns="http://www.w3.org/2000/svg" width="169" height="48" viewBox="0 0 169 48" fill="none">
    <g clip-path="url(#clip0_12044_60197)">
        <path d="M47.8663 22.3779V29.1187C47.8663 29.7341 47.9507 30.1674 48.1219 30.4224C48.2919 30.6761 48.5526 30.8306 48.9027 30.8833C49.2528 30.9361 49.8535 30.9625 50.7035 30.9625V34.7781C50.1293 34.905 49.6192 34.9954 49.1734 35.0481C48.7277 35.1009 48.1849 35.1273 47.5477 35.1273C45.762 35.1273 44.5191 34.6714 43.8177 33.7595C43.1162 32.8489 42.7662 31.4284 42.7662 29.4993V22.3779H40.5032V18.5623H42.7662V14.0157H47.8663V18.5623H50.7035V22.3779H47.8663Z"
              fill="#2C1D26"/>
        <path d="M67.5504 19.5645C68.5389 20.5718 69.0325 21.9974 69.0325 23.8411V34.8422H63.9324V25.4626C63.9324 24.2543 63.7246 23.4065 63.3103 22.9192C62.896 22.4319 62.221 22.1883 61.2866 22.1883C60.4152 22.1883 59.7037 22.4583 59.1508 22.9996C58.598 23.5397 58.3222 24.351 58.3222 25.4324V34.8434H53.2221V12.1091H58.3222V20.916H58.3865C58.8751 20.0682 59.5387 19.3799 60.3787 18.8499C61.2174 18.3199 62.2437 18.0549 63.4551 18.0549C65.198 18.0549 66.5631 18.5585 67.5516 19.5645H67.5504Z"
              fill="#2C1D26"/>
        <path d="M84.532 27.9808C83.488 29.8798 82.4743 30.7979 80.4166 30.7979C77.5907 30.7979 76.2093 29.3887 76.1778 26.2651H88.1247V25.3759C88.1247 19.8923 85.0231 16.829 80.0174 16.829C74.6729 16.829 71.2955 20.3219 71.2955 25.8343C71.2955 31.3468 74.6742 34.8397 80.3864 34.8397C84.6869 34.8397 86.9284 33.2772 88.4333 30.2453L84.532 27.9795V27.9808ZM79.9569 20.5065C82.0146 20.5065 83.2424 21.3631 83.5497 23.5384H76.2395C76.5468 21.3932 77.8993 20.5065 79.9557 20.5065H79.9569Z"
              fill="#2C1D26"/>
        <path d="M111.174 13.0925H121.359C123.777 13.0925 125.666 13.6351 127.026 14.7203C128.386 15.8054 129.066 17.3528 129.066 19.3623C129.066 20.769 128.678 21.9245 127.902 22.8288C127.126 23.7331 126.053 24.336 124.683 24.6374V24.6977C125.812 24.8986 126.668 25.386 127.252 26.1596C127.837 26.9333 128.224 27.7874 128.416 28.7218C128.607 29.6563 128.743 30.7565 128.824 32.0225C128.884 32.8263 128.945 33.3991 129.005 33.7407C129.066 34.0823 129.187 34.2833 129.368 34.3435V34.645H123.716C123.575 34.5043 123.479 34.2632 123.429 33.9215C123.379 33.5799 123.343 33.0775 123.323 32.4144C123.283 31.3493 123.197 30.4651 123.066 29.7618C122.935 29.0584 122.633 28.4455 122.16 27.923C121.686 27.4005 120.966 27.1393 119.999 27.1393H116.614V34.645H111.174V13.0925ZM116.614 22.7082H120.301C121.409 22.7082 122.24 22.4972 122.794 22.0752C123.349 21.6532 123.626 21.0001 123.626 20.1159C123.626 19.2317 123.349 18.5786 122.794 18.1566C122.24 17.7346 121.409 17.5236 120.301 17.5236H116.614V22.7082Z"
              fill="#2C1D26"/>
        <path d="M146.953 21.3518V25.7828H137.523V30.2139H148.645V34.645H132.083V13.0925H148.464V17.5236H137.523V21.3518H146.953Z"
              fill="#2C1D26"/>
        <path d="M151.693 13.0925H162.18C164.477 13.0925 166.27 13.6803 167.56 14.8559C168.849 16.0315 169.494 17.7346 169.494 19.9652C169.494 22.1958 168.849 23.8989 167.56 25.0745C166.27 26.2501 164.477 26.8379 162.18 26.8379H157.133V34.645H151.693V13.0925ZM157.133 22.4068H161.032C162.019 22.4068 162.77 22.2159 163.283 21.8341C163.797 21.4523 164.054 20.8293 164.054 19.9652C164.054 19.1011 163.797 18.4781 163.283 18.0963C162.77 17.7145 162.019 17.5236 161.032 17.5236H157.133V22.4068Z"
              fill="#2C1D26"/>
        <path d="M91.1055 13.0925H101.593C103.89 13.0925 105.683 13.6803 106.973 14.8559C108.262 16.0315 108.907 17.7346 108.907 19.9652C108.907 22.1958 108.262 23.8989 106.973 25.0745C105.683 26.2501 103.89 26.8379 101.593 26.8379H96.5456V34.645H91.1055V13.0925ZM96.5456 22.4068H100.444C101.432 22.4068 102.182 22.2159 102.696 21.8341C103.21 21.4523 103.467 20.8293 103.467 19.9652C103.467 19.1011 103.21 18.4781 102.696 18.0963C102.182 17.7145 101.432 17.5236 100.444 17.5236H96.5456V22.4068Z"
              fill="#2C1D26"/>
        <path d="M11.4256 5.45455C11.4256 8.46701 8.97849 10.9091 5.95986 10.9091C2.94123 10.9091 0.494141 8.46701 0.494141 5.45455C0.494141 2.44208 2.94123 0 5.95986 0C8.97849 0 11.4256 2.44208 11.4256 5.45455Z"
              fill="#2C1D26"/>
        <path d="M20.3894 13.3091C20.3894 15.7191 18.4317 17.6727 16.0168 17.6727C13.6019 17.6727 11.6442 15.7191 11.6442 13.3091C11.6442 10.8991 13.6019 8.94545 16.0168 8.94545C18.4317 8.94545 20.3894 10.8991 20.3894 13.3091Z"
              fill="#2C1D26"/>
        <path d="M23.5595 22.6909C23.5595 24.5586 22.0423 26.0727 20.1707 26.0727C18.2992 26.0727 16.782 24.5586 16.782 22.6909C16.782 20.8232 18.2992 19.3091 20.1707 19.3091C22.0423 19.3091 23.5595 20.8232 23.5595 22.6909Z"
              fill="#2C1D26"/>
        <path d="M23.0129 30.8727C23.0129 32.1982 21.9362 33.2727 20.608 33.2727C19.2798 33.2727 18.2031 32.1982 18.2031 30.8727C18.2031 29.5472 19.2798 28.4727 20.608 28.4727C21.9362 28.4727 23.0129 29.5472 23.0129 30.8727Z"
              fill="#2C1D26"/>
        <path d="M18.6403 37.2545C18.6403 38.0679 17.9796 38.7273 17.1646 38.7273C16.3495 38.7273 15.6888 38.0679 15.6888 37.2545C15.6888 36.4412 16.3495 35.7818 17.1646 35.7818C17.9796 35.7818 18.6403 36.4412 18.6403 37.2545Z"
              fill="#2C1D26"/>
        <path d="M14.3771 41.8364C14.3771 42.469 13.8632 42.9818 13.2293 42.9818C12.5954 42.9818 12.0815 42.469 12.0815 41.8364C12.0815 41.2037 12.5954 40.6909 13.2293 40.6909C13.8632 40.6909 14.3771 41.2037 14.3771 41.8364Z"
              fill="#2C1D26"/>
        <path d="M9.89518 45.2182C9.89518 45.6098 9.57705 45.9273 9.18463 45.9273C8.79221 45.9273 8.47409 45.6098 8.47409 45.2182C8.47409 44.8266 8.79221 44.5091 9.18463 44.5091C9.57705 44.5091 9.89518 44.8266 9.89518 45.2182Z"
              fill="#2C1D26"/>
        <path d="M6.06917 47.5091C6.06917 47.7802 5.84894 48 5.57726 48C5.30558 48 5.08534 47.7802 5.08534 47.5091C5.08534 47.238 5.30558 47.0182 5.57726 47.0182C5.84894 47.0182 6.06917 47.238 6.06917 47.5091Z"
              fill="#2C1D26"/>
    </g>
    <defs>
        <clipPath id="clip0_12044_60197">
            <rect width="169" height="48" fill="white"/>
        </clipPath>
    </defs>
</svg>
